# xmcd CD database file
#
# Track frame offsets:
#	150
#	21065
#	32415
#	56410
#	79032
#	94237
#	108555
#	124127
#	140892
#
# Disc length: 2042 seconds
#
# Revision: 0
# Processed by: cddbd v1.5.1PL2 Copyright (c) Steve Scherf et al.
# Submitted via: CDex 1.51
#
DISCID=7307f809
DTITLE=Honi Gordon - Honi Gordon Sings
DYEAR=1962
DGENRE=Jazz
TTITLE0=Strollin'
TTITLE1=Ill Wind (You're Blowing My No Good)
TTITLE2=My Kokomo
TTITLE3=Why Try To Change Me Now
TTITLE4=Cupid
TTITLE5=Walkin' (Out The Door)
TTITLE6=Why
TTITLE7=Love Affair
TTITLE8=Lament Of The Lonely
EXTD=YEAR: 1962
EXTT0=
EXTT1=
EXTT2=
EXTT3=
EXTT4=
EXTT5=
EXTT6=
EXTT7=
EXTT8=
PLAYORDER=
